<svg width="36" height="36" viewBox="0 0 36 36" fill="none" xmlns="http://www.w3.org/2000/svg">
<circle cx="18" cy="18" r="18" fill="#F4A817"/>
<path d="M17.2286 1.28571C7.71338 1.28571 0 8.99908 0 18.5143C0 28.0295 7.71338 35.7428 17.2286 35.7428C26.7438 35.7428 34.4571 28.0295 34.4571 18.5143C34.4571 8.99908 26.7438 1.28571 17.2286 1.28571ZM24.2367 15.3988C24.2438 15.5459 24.2456 15.6931 24.2456 15.8367C24.2456 20.3233 20.834 25.4936 14.5922 25.4936C12.7479 25.4967 10.9419 24.967 9.39137 23.9682C9.65518 24.0005 9.92617 24.0131 10.2007 24.0131C11.7908 24.0131 13.2534 23.4729 14.4146 22.5612C13.707 22.5473 13.0213 22.313 12.4532 21.8909C11.8851 21.4689 11.4628 20.8801 11.2452 20.2066C11.7534 20.3033 12.2769 20.283 12.7761 20.1474C12.008 19.9921 11.3174 19.5759 10.8212 18.9695C10.325 18.3631 10.0538 17.6037 10.0536 16.8201V16.7789C10.5112 17.0319 11.0353 17.1862 11.5916 17.2042C10.8716 16.7249 10.3619 15.9886 10.1667 15.146C9.97158 14.3033 10.1057 13.4179 10.5417 12.6709C11.3941 13.719 12.4571 14.5764 13.6618 15.1876C14.8666 15.7988 16.1863 16.1501 17.5355 16.2189C17.3639 15.4909 17.4378 14.7265 17.7454 14.0447C18.0531 13.3629 18.5775 12.8019 19.2369 12.4489C19.8963 12.0958 20.654 11.9705 21.3919 12.0925C22.1299 12.2144 22.807 12.5767 23.3178 13.1232C24.0772 12.9729 24.8055 12.6943 25.4714 12.2994C25.2183 13.0857 24.6883 13.7534 23.98 14.1784C24.6527 14.0974 25.3096 13.9165 25.929 13.6418C25.474 14.3236 24.9009 14.9186 24.2367 15.3988Z" fill="white"/>
<circle cx="18" cy="20" r="12" fill="white"/>
<path d="M21 12.3934C21 12.2903 20.9569 12.1914 20.8802 12.1185C20.8035 12.0456 20.6994 12.0046 20.5909 12.0046H18.5455C17.5155 11.9558 16.507 12.2965 15.7405 12.9521C14.974 13.6077 14.5116 14.5249 14.4545 15.5034V17.6028H12.4091C12.3006 17.6028 12.1965 17.6437 12.1198 17.7166C12.0431 17.7895 12 17.8884 12 17.9915V20.0131C12 20.1162 12.0431 20.2151 12.1198 20.288C12.1965 20.3609 12.3006 20.4018 12.4091 20.4018H14.4545V25.6112C14.4545 25.7143 14.4976 25.8132 14.5744 25.8861C14.6511 25.959 14.7551 26 14.8636 26H17.3182C17.4267 26 17.5307 25.959 17.6075 25.8861C17.6842 25.8132 17.7273 25.7143 17.7273 25.6112V20.4018H19.8709C19.9619 20.4031 20.0507 20.3755 20.1233 20.3234C20.1959 20.2713 20.2482 20.1976 20.2718 20.1142L20.8609 18.0926C20.8772 18.0352 20.8794 17.9749 20.8673 17.9166C20.8552 17.8582 20.8292 17.8032 20.7913 17.7559C20.7534 17.7086 20.7045 17.6702 20.6485 17.6436C20.5925 17.6171 20.5308 17.6031 20.4682 17.6028H17.7273V15.5034C17.7476 15.311 17.8427 15.1327 17.994 15.0033C18.1453 14.8739 18.3419 14.8027 18.5455 14.8037H20.5909C20.6994 14.8037 20.8035 14.7627 20.8802 14.6898C20.9569 14.6169 21 14.518 21 14.4149V12.3934Z" fill="#F2A40E"/>
</svg>
