<svg width="1920" height="713" viewBox="0 0 1920 713" fill="none" xmlns="http://www.w3.org/2000/svg">
<path d="M1920 713L0 713L6.23325e-05 -7.72527e-05L1920 72.4328L1920 713Z" fill="white"/>
<mask id="mask0_1635_2" style="mask-type:alpha" maskUnits="userSpaceOnUse" x="0" y="0" width="1920" height="714">
<path d="M1920 713L0 713L6.23325e-05 -7.72527e-05L1920 72.4328L1920 713Z" fill="white"/>
</mask>
<g mask="url(#mask0_1635_2)">
<g opacity="0.51">
<g opacity="0.51">
<path opacity="0.51" d="M24.5865 760.695L26.2466 760.695L26.2467 -47.6951L24.5866 -47.6951L24.5865 760.695Z" fill="#FFCF74"/>
</g>
<g opacity="0.51">
<path opacity="0.51" d="M55.4531 760.695L57.1333 760.695L57.1334 -47.6951L55.4532 -47.6951L55.4531 760.695Z" fill="#FFCF74"/>
</g>
<g opacity="0.51">
<path opacity="0.51" d="M86.3538 760.695L88.0137 760.695L88.0137 -47.6951L86.3538 -47.6951L86.3538 760.695Z" fill="#FFCF74"/>
</g>
<g opacity="0.51">
<path opacity="0.51" d="M117.227 760.695L118.907 760.695L118.907 -47.6951L117.227 -47.6951L117.227 760.695Z" fill="#FFCF74"/>
</g>
<g opacity="0.51">
<path opacity="0.51" d="M148.114 760.695L149.793 760.695L149.794 -47.6951L148.114 -47.6951L148.114 760.695Z" fill="#FFCF74"/>
</g>
<g opacity="0.51">
<path opacity="0.51" d="M178.993 760.695L180.673 760.695L180.673 -47.6951L178.993 -47.6951L178.993 760.695Z" fill="#FFCF74"/>
</g>
<g opacity="0.51">
<path opacity="0.51" d="M209.887 760.695L211.56 760.695L211.56 -47.6951L209.887 -47.6951L209.887 760.695Z" fill="#FFCF74"/>
</g>
<g opacity="0.51">
<path opacity="0.51" d="M240.76 760.695L242.44 760.695L242.44 -47.6951L240.76 -47.6951L240.76 760.695Z" fill="#FFCF74"/>
</g>
<g opacity="0.51">
<path opacity="0.51" d="M271.653 760.695L273.333 760.695L273.334 -47.6951L271.653 -47.6951L271.653 760.695Z" fill="#FFCF74"/>
</g>
<g opacity="0.51">
<path opacity="0.51" d="M302.547 760.695L304.207 760.695L304.207 -47.6951L302.547 -47.6951L302.547 760.695Z" fill="#FFCF74"/>
</g>
<g opacity="0.51">
<path opacity="0.51" d="M333.42 760.695L335.1 760.695L335.1 -47.6951L333.42 -47.6951L333.42 760.695Z" fill="#FFCF74"/>
</g>
<g opacity="0.51">
<path opacity="0.51" d="M364.313 760.695L365.973 760.695L365.973 -47.6951L364.313 -47.6951L364.313 760.695Z" fill="#FFCF74"/>
</g>
<g opacity="0.51">
<path opacity="0.51" d="M395.187 760.695L396.867 760.695L396.867 -47.6951L395.187 -47.6951L395.187 760.695Z" fill="#FFCF74"/>
</g>
<g opacity="0.51">
<path opacity="0.51" d="M426.08 760.695L427.74 760.695L427.74 -47.6951L426.08 -47.6951L426.08 760.695Z" fill="#FFCF74"/>
</g>
<g opacity="0.51">
<path opacity="0.51" d="M456.96 760.695L458.633 760.695L458.633 -47.6951L456.96 -47.6951L456.96 760.695Z" fill="#FFCF74"/>
</g>
<g opacity="0.51">
<path opacity="0.51" d="M487.847 760.695L489.507 760.695L489.507 -47.6951L487.847 -47.6951L487.847 760.695Z" fill="#FFCF74"/>
</g>
<g opacity="0.51">
<path opacity="0.51" d="M518.726 760.695L520.4 760.695L520.4 -47.6951L518.727 -47.6951L518.726 760.695Z" fill="#FFCF74"/>
</g>
<g opacity="0.51">
<path opacity="0.51" d="M549.62 760.695L551.293 760.695L551.294 -47.6951L549.62 -47.6951L549.62 760.695Z" fill="#FFCF74"/>
</g>
<g opacity="0.51">
<path opacity="0.51" d="M580.487 760.695L582.167 760.695L582.167 -47.6951L580.487 -47.6951L580.487 760.695Z" fill="#FFCF74"/>
</g>
<g opacity="0.51">
<path opacity="0.51" d="M611.38 760.695L613.06 760.695L613.06 -47.6951L611.38 -47.6951L611.38 760.695Z" fill="#FFCF74"/>
</g>
<g opacity="0.51">
<path opacity="0.51" d="M642.254 760.695L643.934 760.695L643.934 -47.6951L642.254 -47.6951L642.254 760.695Z" fill="#FFCF74"/>
</g>
<g opacity="0.51">
<path opacity="0.51" d="M673.153 760.695L674.827 760.695L674.827 -47.6951L673.153 -47.6951L673.153 760.695Z" fill="#FFCF74"/>
</g>
<g opacity="0.51">
<path opacity="0.51" d="M704.033 760.695L705.707 760.695L705.707 -47.6951L704.033 -47.6951L704.033 760.695Z" fill="#FFCF74"/>
</g>
<g opacity="0.51">
<path opacity="0.51" d="M734.92 760.695L736.593 760.695L736.593 -47.6951L734.92 -47.6951L734.92 760.695Z" fill="#FFCF74"/>
</g>
<g opacity="0.51">
<path opacity="0.51" d="M765.813 760.695L767.473 760.695L767.473 -47.6951L765.813 -47.6951L765.813 760.695Z" fill="#FFCF74"/>
</g>
<g opacity="0.51">
<path opacity="0.51" d="M796.693 760.695L798.367 760.695L798.367 -47.6951L796.693 -47.6951L796.693 760.695Z" fill="#FFCF74"/>
</g>
<g opacity="0.51">
<path opacity="0.51" d="M827.58 760.695L829.24 760.695L829.24 -47.6951L827.58 -47.6951L827.58 760.695Z" fill="#FFCF74"/>
</g>
<g opacity="0.51">
<path opacity="0.51" d="M858.46 760.695L860.133 760.695L860.133 -47.6951L858.46 -47.6951L858.46 760.695Z" fill="#FFCF74"/>
</g>
<g opacity="0.51">
<path opacity="0.51" d="M889.347 760.695L891.007 760.695L891.007 -47.6951L889.347 -47.6951L889.347 760.695Z" fill="#FFCF74"/>
</g>
<g opacity="0.51">
<path opacity="0.51" d="M920.227 760.695L921.9 760.695L921.9 -47.6951L920.227 -47.6951L920.227 760.695Z" fill="#FFCF74"/>
</g>
<g opacity="0.51">
<path opacity="0.51" d="M951.114 760.695L952.78 760.695L952.78 -47.6951L951.114 -47.6951L951.114 760.695Z" fill="#FFCF74"/>
</g>
<g opacity="0.51">
<path opacity="0.51" d="M982 760.695L983.667 760.695L983.667 -47.6951L982 -47.6951L982 760.695Z" fill="#FFCF74"/>
</g>
<g opacity="0.51">
<path opacity="0.51" d="M1012.88 760.695L1014.55 760.695L1014.55 -47.6951L1012.88 -47.6951L1012.88 760.695Z" fill="#FFCF74"/>
</g>
<g opacity="0.51">
<path opacity="0.51" d="M1043.77 760.695L1045.44 760.695L1045.44 -47.6951L1043.77 -47.6951L1043.77 760.695Z" fill="#FFCF74"/>
</g>
<g opacity="0.51">
<path opacity="0.51" d="M1074.65 760.695L1076.33 760.695L1076.33 -47.6951L1074.65 -47.6951L1074.65 760.695Z" fill="#FFCF74"/>
</g>
<g opacity="0.51">
<path opacity="0.51" d="M1105.53 760.695L1107.21 760.695L1107.21 -47.6951L1105.53 -47.6951L1105.53 760.695Z" fill="#FFCF74"/>
</g>
<g opacity="0.51">
<path opacity="0.51" d="M1136.42 760.695L1138.09 760.695L1138.09 -47.6951L1136.42 -47.6951L1136.42 760.695Z" fill="#FFCF74"/>
</g>
<g opacity="0.51">
<path opacity="0.51" d="M1167.3 760.695L1168.98 760.695L1168.98 -47.6951L1167.3 -47.6951L1167.3 760.695Z" fill="#FFCF74"/>
</g>
<g opacity="0.51">
<path opacity="0.51" d="M1198.18 760.695L1199.86 760.695L1199.86 -47.6951L1198.18 -47.6951L1198.18 760.695Z" fill="#FFCF74"/>
</g>
<g opacity="0.51">
<path opacity="0.51" d="M1229.07 760.695L1230.75 760.695L1230.75 -47.6951L1229.07 -47.6951L1229.07 760.695Z" fill="#FFCF74"/>
</g>
<g opacity="0.51">
<path opacity="0.51" d="M1259.96 760.695L1261.63 760.695L1261.63 -47.6951L1259.96 -47.6951L1259.96 760.695Z" fill="#FFCF74"/>
</g>
<g opacity="0.51">
<path opacity="0.51" d="M1290.85 760.695L1292.51 760.695L1292.51 -47.695L1290.85 -47.695L1290.85 760.695Z" fill="#FFCF74"/>
</g>
<g opacity="0.51">
<path opacity="0.51" d="M1321.73 760.695L1323.39 760.695L1323.39 -47.695L1321.73 -47.695L1321.73 760.695Z" fill="#FFCF74"/>
</g>
<g opacity="0.51">
<path opacity="0.51" d="M1352.61 760.695L1354.28 760.695L1354.28 -47.695L1352.61 -47.695L1352.61 760.695Z" fill="#FFCF74"/>
</g>
<g opacity="0.51">
<path opacity="0.51" d="M1383.5 760.695L1385.17 760.695L1385.17 -47.695L1383.5 -47.695L1383.5 760.695Z" fill="#FFCF74"/>
</g>
<g opacity="0.51">
<path opacity="0.51" d="M1414.38 760.695L1416.05 760.695L1416.05 -47.695L1414.38 -47.695L1414.38 760.695Z" fill="#FFCF74"/>
</g>
<g opacity="0.51">
<path opacity="0.51" d="M1445.26 760.695L1446.94 760.695L1446.94 -47.695L1445.26 -47.695L1445.26 760.695Z" fill="#FFCF74"/>
</g>
<g opacity="0.51">
<path opacity="0.51" d="M1476.14 760.695L1477.82 760.695L1477.82 -47.695L1476.14 -47.695L1476.14 760.695Z" fill="#FFCF74"/>
</g>
<g opacity="0.51">
<path opacity="0.51" d="M1507.03 760.695L1508.71 760.695L1508.71 -47.695L1507.03 -47.695L1507.03 760.695Z" fill="#FFCF74"/>
</g>
<g opacity="0.51">
<path opacity="0.51" d="M1537.91 760.695L1539.59 760.695L1539.59 -47.695L1537.91 -47.695L1537.91 760.695Z" fill="#FFCF74"/>
</g>
<g opacity="0.51">
<path opacity="0.51" d="M1568.81 760.695L1570.47 760.695L1570.47 -47.695L1568.81 -47.695L1568.81 760.695Z" fill="#FFCF74"/>
</g>
<g opacity="0.51">
<path opacity="0.51" d="M1599.69 760.695L1601.36 760.695L1601.36 -47.695L1599.69 -47.695L1599.69 760.695Z" fill="#FFCF74"/>
</g>
<g opacity="0.51">
<path opacity="0.51" d="M1630.57 760.695L1632.24 760.695L1632.24 -47.695L1630.57 -47.695L1630.57 760.695Z" fill="#FFCF74"/>
</g>
<g opacity="0.51">
<path opacity="0.51" d="M1661.46 760.695L1663.13 760.695L1663.13 -47.695L1661.46 -47.695L1661.46 760.695Z" fill="#FFCF74"/>
</g>
<g opacity="0.51">
<path opacity="0.51" d="M1692.34 760.695L1694.01 760.695L1694.01 -47.695L1692.34 -47.695L1692.34 760.695Z" fill="#FFCF74"/>
</g>
<g opacity="0.51">
<path opacity="0.51" d="M1723.23 760.695L1724.89 760.695L1724.89 -47.695L1723.23 -47.695L1723.23 760.695Z" fill="#FFCF74"/>
</g>
<g opacity="0.51">
<path opacity="0.51" d="M1754.11 760.695L1755.78 760.695L1755.78 -47.695L1754.11 -47.695L1754.11 760.695Z" fill="#FFCF74"/>
</g>
<g opacity="0.51">
<path opacity="0.51" d="M1784.99 760.695L1786.66 760.695L1786.66 -47.695L1784.99 -47.695L1784.99 760.695Z" fill="#FFCF74"/>
</g>
<g opacity="0.51">
<path opacity="0.51" d="M1815.87 760.695L1817.55 760.695L1817.55 -47.695L1815.87 -47.695L1815.87 760.695Z" fill="#FFCF74"/>
</g>
<g opacity="0.51">
<path opacity="0.51" d="M1846.76 760.695L1848.44 760.695L1848.44 -47.695L1846.76 -47.695L1846.76 760.695Z" fill="#FFCF74"/>
</g>
<g opacity="0.51">
<path opacity="0.51" d="M1877.64 760.695L1879.32 760.695L1879.32 -47.695L1877.64 -47.695L1877.64 760.695Z" fill="#FFCF74"/>
</g>
<g opacity="0.51">
<path opacity="0.51" d="M1908.53 760.695L1910.21 760.695L1910.21 -47.695L1908.53 -47.695L1908.53 760.695Z" fill="#FFCF74"/>
</g>
<g opacity="0.51">
<path opacity="0.51" d="M-40 709.896L1960 709.896L1960 708.527L-40 708.527L-40 709.896Z" fill="#FFCF74"/>
</g>
<g opacity="0.51">
<path opacity="0.51" d="M-40 684.663L1960 684.664L1960 683.295L-40 683.295L-40 684.663Z" fill="#FFCF74"/>
</g>
<g opacity="0.51">
<path opacity="0.51" d="M-40 659.441L1960 659.442L1960 658.073L-40 658.072L-40 659.441Z" fill="#FFCF74"/>
</g>
<g opacity="0.51">
<path opacity="0.51" d="M-40 634.214L1960 634.214L1960 632.846L-40 632.845L-40 634.214Z" fill="#FFCF74"/>
</g>
<g opacity="0.51">
<path opacity="0.51" d="M-40 608.982L1960 608.982L1960 607.618L-40 607.618L-40 608.982Z" fill="#FFCF74"/>
</g>
<g opacity="0.51">
<path opacity="0.51" d="M-40 583.76L1960 583.76L1960 582.391L-40 582.391L-40 583.76Z" fill="#FFCF74"/>
</g>
<g opacity="0.51">
<path opacity="0.51" d="M-40 558.533L1960 558.533L1960 557.164L-40 557.164L-40 558.533Z" fill="#FFCF74"/>
</g>
<g opacity="0.51">
<path opacity="0.51" d="M-40 533.3L1960 533.3L1960 531.937L-40 531.937L-40 533.3Z" fill="#FFCF74"/>
</g>
<g opacity="0.51">
<path opacity="0.51" d="M-40 508.078L1960 508.078L1960 506.71L-40 506.709L-40 508.078Z" fill="#FFCF74"/>
</g>
<g opacity="0.51">
<path opacity="0.51" d="M-40 482.851L1960 482.851L1960 481.493L-40 481.493L-40 482.851Z" fill="#FFCF74"/>
</g>
<g opacity="0.51">
<path opacity="0.51" d="M-40 457.63L1960 457.63L1960 456.261L-40 456.261L-40 457.63Z" fill="#FFCF74"/>
</g>
<g opacity="0.51">
<path opacity="0.51" d="M-40 432.397L1960 432.397L1960 431.028L-40 431.028L-40 432.397Z" fill="#FFCF74"/>
</g>
<g opacity="0.51">
<path opacity="0.51" d="M-40 407.17L1960 407.17L1960 405.812L-40 405.812L-40 407.17Z" fill="#FFCF74"/>
</g>
<g opacity="0.51">
<path opacity="0.51" d="M-40 381.948L1960 381.948L1960 380.579L-40 380.579L-40 381.948Z" fill="#FFCF74"/>
</g>
<g opacity="0.51">
<path opacity="0.51" d="M-40 356.715L1960 356.716L1960 355.352L-40 355.352L-40 356.715Z" fill="#FFCF74"/>
</g>
<g opacity="0.51">
<path opacity="0.51" d="M-40 331.488L1960 331.488L1960 330.12L-40 330.119L-40 331.488Z" fill="#FFCF74"/>
</g>
<g opacity="0.51">
<path opacity="0.51" d="M-40 306.266L1960 306.267L1960 304.898L-40 304.898L-40 306.266Z" fill="#FFCF74"/>
</g>
<g opacity="0.51">
<path opacity="0.51" d="M-40 281.039L1960 281.039L1960 279.671L-40 279.67L-40 281.039Z" fill="#FFCF74"/>
</g>
<g opacity="0.51">
<path opacity="0.51" d="M-40 255.807L1960 255.807L1960 254.438L-40 254.438L-40 255.807Z" fill="#FFCF74"/>
</g>
<g opacity="0.51">
<path opacity="0.51" d="M-40 230.585L1960 230.585L1960 229.216L-40 229.216L-40 230.585Z" fill="#FFCF74"/>
</g>
<g opacity="0.51">
<path opacity="0.51" d="M-40 205.358L1960 205.358L1960 203.989L-40 203.989L-40 205.358Z" fill="#FFCF74"/>
</g>
<g opacity="0.51">
<path opacity="0.51" d="M-40 180.125L1960 180.126L1960 178.773L-40 178.773L-40 180.125Z" fill="#FFCF74"/>
</g>
<g opacity="0.51">
<path opacity="0.51" d="M-40 154.904L1960 154.904L1960 153.535L-40 153.535L-40 154.904Z" fill="#FFCF74"/>
</g>
<g opacity="0.51">
<path opacity="0.51" d="M-40 129.676L1960 129.677L1960 128.308L-40 128.308L-40 129.676Z" fill="#FFCF74"/>
</g>
<g opacity="0.51">
<path opacity="0.51" d="M-40 104.444L1960 104.444L1960 103.086L-40 103.086L-40 104.444Z" fill="#FFCF74"/>
</g>
<g opacity="0.51">
<path opacity="0.51" d="M-40 79.2221L1960 79.2223L1960 77.8534L-40 77.8533L-40 79.2221Z" fill="#FFCF74"/>
</g>
<g opacity="0.51">
<path opacity="0.51" d="M-40 54.0002L1960 54.0004L1960 52.6316L-40 52.6314L-40 54.0002Z" fill="#FFCF74"/>
</g>
<g opacity="0.51">
<path opacity="0.51" d="M-40 28.7625L1960 28.7626L1960 27.4046L-40 27.4044L-40 28.7625Z" fill="#FFCF74"/>
</g>
<g opacity="0.51">
<path opacity="0.51" d="M-40 3.54047L1960 3.54065L1960 2.1719L-40 2.17173L-40 3.54047Z" fill="#FFCF74"/>
</g>
</g>
</g>
</svg>
