<svg width="26" height="26" viewBox="0 0 26 26" fill="none" xmlns="http://www.w3.org/2000/svg">
<circle cx="13" cy="13" r="13" fill="url(#paint0_linear_89_444)"/>
<path fill-rule="evenodd" clip-rule="evenodd" d="M12.826 7.89281C12.9953 7.89281 13.1576 7.96006 13.2773 8.07977C13.397 8.19947 13.4643 8.36183 13.4643 8.53113L13.4643 15.9267L16.204 13.1857C16.2633 13.1264 16.3338 13.0793 16.4113 13.0472C16.4888 13.0151 16.572 12.9986 16.6559 12.9986C16.7398 12.9986 16.8229 13.0151 16.9005 13.0472C16.978 13.0793 17.0485 13.1264 17.1078 13.1857C17.1672 13.2451 17.2142 13.3156 17.2464 13.3931C17.2785 13.4706 17.295 13.5537 17.295 13.6377C17.295 13.7216 17.2785 13.8047 17.2464 13.8823C17.2142 13.9598 17.1672 14.0303 17.1078 14.0896L13.2779 17.9195C13.2186 17.979 13.1482 18.0261 13.0706 18.0583C12.9931 18.0905 12.9099 18.1071 12.826 18.1071C12.742 18.1071 12.6589 18.0905 12.5813 18.0583C12.5038 18.0261 12.4333 17.979 12.374 17.9195L8.54413 14.0896C8.42427 13.9698 8.35693 13.8072 8.35693 13.6377C8.35693 13.4682 8.42427 13.3056 8.54413 13.1857C8.66399 13.0659 8.82655 12.9986 8.99606 12.9986C9.16557 12.9986 9.32813 13.0659 9.44799 13.1857L12.1877 15.9267L12.1877 8.53113C12.1877 8.36183 12.2549 8.19947 12.3746 8.07977C12.4943 7.96006 12.6567 7.89281 12.826 7.89281Z" fill="white"/>
<defs>
<linearGradient id="paint0_linear_89_444" x1="0" y1="0" x2="29.7011" y2="3.82841" gradientUnits="userSpaceOnUse">
<stop stop-color="#FABC45"/>
<stop offset="1" stop-color="#F09E00"/>
</linearGradient>
</defs>
</svg>
