<svg width="36" height="36" viewBox="0 0 36 36" fill="none" xmlns="http://www.w3.org/2000/svg">
<circle cx="18" cy="18" r="18" fill="#F4A817"/>
<circle cx="16.5" cy="19.5" r="15.5" fill="#F4A818"/>
<path d="M17.2286 1.28571C7.71338 1.28571 0 8.99908 0 18.5143C0 28.0295 7.71338 35.7428 17.2286 35.7428C26.7438 35.7428 34.4571 28.0295 34.4571 18.5143C34.4571 8.99908 26.7438 1.28571 17.2286 1.28571ZM24.2367 15.3988C24.2438 15.5459 24.2456 15.6931 24.2456 15.8367C24.2456 20.3233 20.834 25.4936 14.5922 25.4936C12.7479 25.4967 10.9419 24.967 9.39137 23.9682C9.65518 24.0005 9.92617 24.0131 10.2007 24.0131C11.7908 24.0131 13.2534 23.4729 14.4146 22.5612C13.707 22.5473 13.0213 22.313 12.4532 21.8909C11.8851 21.4689 11.4628 20.8801 11.2452 20.2066C11.7534 20.3033 12.2769 20.283 12.7761 20.1474C12.008 19.9921 11.3174 19.5759 10.8212 18.9695C10.325 18.3631 10.0538 17.6037 10.0536 16.8201V16.7789C10.5112 17.0319 11.0353 17.1862 11.5916 17.2042C10.8716 16.7249 10.3619 15.9886 10.1667 15.146C9.97158 14.3033 10.1057 13.4179 10.5417 12.6709C11.3941 13.719 12.4571 14.5764 13.6618 15.1876C14.8666 15.7988 16.1863 16.1501 17.5355 16.2189C17.3639 15.4909 17.4378 14.7265 17.7454 14.0447C18.0531 13.3629 18.5775 12.8019 19.2369 12.4489C19.8963 12.0958 20.654 11.9705 21.3919 12.0925C22.1299 12.2144 22.807 12.5767 23.3178 13.1232C24.0772 12.9729 24.8055 12.6943 25.4714 12.2994C25.2183 13.0857 24.6883 13.7534 23.98 14.1784C24.6527 14.0974 25.3096 13.9165 25.929 13.6418C25.474 14.3236 24.9009 14.9186 24.2367 15.3988Z" fill="white"/>
<circle cx="18" cy="20" r="12" fill="white"/>
<path d="M24.7233 14.4103L26 13.2533V13H21.5773L18.4253 20.4324L14.8393 13H10.202V13.2533L11.6933 14.9541C11.8387 15.0798 11.9147 15.2636 11.8953 15.4486V22.1326C11.9413 22.3733 11.8587 22.6208 11.68 22.7958L10 24.7246V24.9747H14.7633V24.7215L13.0833 22.7958C12.9013 22.6202 12.8153 22.3771 12.852 22.1326V16.3512L17.0333 24.9779H17.5193L21.1147 16.3512V23.2234C21.1147 23.4046 21.1147 23.4419 20.9893 23.5606L19.696 24.7461V25H25.9707V24.7467L24.724 23.5903C24.6147 23.512 24.558 23.3806 24.5813 23.2531V14.7476C24.558 14.6194 24.614 14.488 24.7233 14.4103Z" fill="#F2A40E"/>
</svg>
